<svg width="56" height="56" viewBox="0 0 56 56" fill="none" xmlns="http://www.w3.org/2000/svg">
<g id="icons8-cursor 1">
<path id="Vector" d="M16.25 48.2085V5.73068L18.4057 7.84718L18.4075 7.84897L44.107 33.6032L44.1074 33.6036L45.8984 35.3946L43.3608 35.7069L43.3606 35.7069L34.5012 36.8006L33.7936 36.888L34.1168 37.5236L37.3411 43.8627L37.89 44.9999L36.7998 45.545L36.7998 45.5449L36.7945 45.5477L31.3804 48.3368L31.3797 48.3371L30.2503 48.9213L29.7081 47.7983L29.7082 47.7982L29.7043 47.7906L26.1496 40.7359L25.8658 40.1726L25.3822 40.5776L18.3291 46.4825L18.3275 46.4838L16.25 48.2085ZM19.6031 12.6616L18.75 11.8108V13.0156V41.7266V42.8005L19.5718 42.1092L25.4229 37.1878L25.4234 37.1873L26.6437 36.1638L27.3912 37.5801L31.1622 45.122L31.39 45.5778L31.8414 45.3414L34.1383 44.1382L34.5783 43.9077L34.3507 43.4662L30.7419 36.4674L30.7413 36.4662L29.9161 34.8552L31.6717 34.6211L39.543 33.6919L40.5689 33.5708L39.8375 32.8413L19.6031 12.6616Z" fill="#020A47" stroke="white"/>
</g>
</svg>
