<svg width="56" height="56" viewBox="0 0 56 56" fill="none" xmlns="http://www.w3.org/2000/svg">
<g id="icons8-deviation 1">
<path id="Vector" d="M35 10H34.5V10.5V21V21.5H35H45.5H46V21V10.5V10H45.5H35ZM7.5 16.625C7.5 11.6033 11.6033 7.5 16.625 7.5C21.6467 7.5 25.75 11.6033 25.75 16.625C25.75 21.6467 21.6467 25.75 16.625 25.75C11.6033 25.75 7.5 21.6467 7.5 16.625ZM48.5 24H32V7.5H48.5V24ZM23.25 16.625C23.25 12.9446 20.3054 10 16.625 10C12.9446 10 10 12.9446 10 16.625C10 20.3054 12.9446 23.25 16.625 23.25C20.3054 23.25 23.25 20.3054 23.25 16.625ZM7.5 39.375C7.5 34.3533 11.6033 30.25 16.625 30.25C21.6467 30.25 25.75 34.3533 25.75 39.375C25.75 44.3967 21.6467 48.5 16.625 48.5C11.6033 48.5 7.5 44.3967 7.5 39.375ZM30.25 39.375C30.25 34.3533 34.3533 30.25 39.375 30.25C44.3967 30.25 48.5 34.3533 48.5 39.375C48.5 44.3967 44.3967 48.5 39.375 48.5C34.3533 48.5 30.25 44.3967 30.25 39.375ZM23.25 39.375C23.25 35.6946 20.3054 32.75 16.625 32.75C12.9446 32.75 10 35.6946 10 39.375C10 43.0554 12.9446 46 16.625 46C20.3054 46 23.25 43.0554 23.25 39.375ZM46 39.375C46 35.6946 43.0554 32.75 39.375 32.75C35.6946 32.75 32.75 35.6946 32.75 39.375C32.75 43.0554 35.6946 46 39.375 46C43.0554 46 46 43.0554 46 39.375Z" fill="#020A47" stroke="white"/>
</g>
</svg>
