<svg width="56" height="56" viewBox="0 0 56 56" fill="none" xmlns="http://www.w3.org/2000/svg">
<g id="icons8-refresh 1">
<path id="Vector" d="M44.25 14.1641V9.25H46.75V20.5H35.5V18H41.8906H42.8897L42.2909 17.2003C39.0439 12.864 33.8406 10 28 10C20.4586 10 14.2123 14.537 11.4828 21.0046L9.18162 20.0685C12.268 12.6805 19.4425 7.5 28 7.5C34.0981 7.5 39.6296 10.2019 43.3732 14.4928L44.25 15.4977V14.1641ZM11.75 41.8359V46.75H9.25V35.5H20.5V38H14.0547H13.0471L13.6565 38.8024C16.9152 43.0935 22.096 46 28 46C35.5414 46 41.7877 41.463 44.5172 34.9954L46.8184 35.9315C43.732 43.3195 36.5575 48.5 28 48.5C21.8435 48.5 16.3647 45.7458 12.625 41.5052L11.75 40.513V41.8359Z" fill="#020A47" stroke="white"/>
</g>
</svg>
