<svg width="56" height="56" viewBox="0 0 56 56" fill="none" xmlns="http://www.w3.org/2000/svg">
<path d="M42.9979 33.0001H36.4219V22.3281H38.2939V31.3521H42.9979V33.0001Z" fill="#020A47"/>
<path d="M29.163 33.1923C27.5737 33.1923 26.267 32.675 25.243 31.6403C24.219 30.595 23.707 29.2723 23.707 27.6723C23.707 26.0723 24.219 24.755 25.243 23.7203C26.267 22.675 27.5737 22.1523 29.163 22.1523C30.7524 22.1523 32.059 22.675 33.083 23.7203C34.107 24.755 34.619 26.0723 34.619 27.6723C34.619 29.1977 34.1444 30.4777 33.195 31.5123L34.075 32.5043L32.779 33.5923L31.851 32.5523C31.0617 32.979 30.1657 33.1923 29.163 33.1923ZM29.163 31.5283C29.707 31.5283 30.2084 31.4217 30.667 31.2083L29.355 29.7043L30.651 28.6323L31.963 30.1363C32.4537 29.4643 32.699 28.643 32.699 27.6723C32.699 26.5523 32.3737 25.6297 31.723 24.9043C31.0724 24.179 30.219 23.8163 29.163 23.8163C28.0964 23.8163 27.2377 24.179 26.587 24.9043C25.947 25.6297 25.627 26.5523 25.627 27.6723C25.627 28.7923 25.947 29.715 26.587 30.4403C27.2377 31.1657 28.0964 31.5283 29.163 31.5283Z" fill="#020A47"/>
<path d="M18.336 33.192C16.5013 33.192 15.056 32.6266 14 31.496L15.04 30.056C15.9573 31.0373 17.0827 31.528 18.416 31.528C19.1307 31.528 19.664 31.384 20.016 31.096C20.3787 30.808 20.56 30.4666 20.56 30.072C20.56 29.6666 20.3467 29.3466 19.92 29.112C19.4933 28.8666 18.976 28.6746 18.368 28.536C17.76 28.3973 17.1467 28.232 16.528 28.04C15.92 27.848 15.4027 27.5226 14.976 27.064C14.5493 26.6053 14.336 26.0133 14.336 25.288C14.336 24.392 14.6933 23.6506 15.408 23.064C16.1333 22.4666 17.072 22.168 18.224 22.168C19.8667 22.168 21.2 22.664 22.224 23.656L21.152 25.048C20.3413 24.2373 19.312 23.832 18.064 23.832C17.5093 23.832 17.0667 23.9546 16.736 24.2C16.416 24.4346 16.256 24.7546 16.256 25.16C16.256 25.4266 16.368 25.6506 16.592 25.832C16.8267 26.0133 17.1253 26.1626 17.488 26.28C17.8507 26.3866 18.2507 26.4933 18.688 26.6C19.136 26.7066 19.5787 26.84 20.016 27C20.464 27.1493 20.8693 27.336 21.232 27.56C21.5947 27.784 21.888 28.0933 22.112 28.488C22.3467 28.8826 22.464 29.352 22.464 29.896C22.464 30.856 22.1173 31.6453 21.424 32.264C20.7307 32.8826 19.7013 33.192 18.336 33.192Z" fill="#020A47"/>
<rect x="1.75" y="13.75" width="52.5" height="28.5" stroke="#020A47" stroke-width="1.5"/>
</svg>
