<svg width="48" height="23" viewBox="0 0 48 23" fill="none" xmlns="http://www.w3.org/2000/svg">
<path d="M28.3 5.2L27.775 5.9875M19.9 5.2C17.9844 2.64986 14.9351 1 11.5 1C5.70102 1 1 5.70102 1 11.5C1 17.2989 5.70102 22 11.5 22C14.9352 22 17.9851 20.3502 19.9008 17.8L20.6008 16.75" stroke="#020A47" stroke-width="1.5" stroke-linecap="round" stroke-linejoin="round"/>
<path d="M36.7055 22C42.5045 22 47.2055 17.2989 47.2055 11.5C47.2055 5.70102 42.5045 1 36.7055 1C33.2703 1 30.2203 2.64965 28.3047 5.2" stroke="#020A47" stroke-width="1.5" stroke-linecap="round" stroke-linejoin="round"/>
<path d="M19.9062 5.19922L28.3054 17.7992C30.221 20.3495 33.2711 21.9992 36.7062 21.9992" stroke="#020A47" stroke-width="1.5" stroke-dasharray="2 2"/>
</svg>
