<svg width="56" height="56" viewBox="0 0 56 56" fill="none" xmlns="http://www.w3.org/2000/svg">
<g id="icons8-filing_cabinet 2">
<path id="Vector" d="M21.5 18.4844V9.25H24V24H9.25V21.5H18.4844H19.6915L18.8379 20.6464L6.44929 8.25781L8.25781 6.44929L20.6464 18.8379L21.5 19.6915V18.4844ZM37.5156 21.5H46.75V24H32V9.25H34.5V18.4844V19.6915L35.3536 18.8379L47.7422 6.44929L49.5507 8.25781L37.1621 20.6464L36.3085 21.5H37.5156ZM20.6464 37.1621L8.25781 49.5507L6.44929 47.7422L18.8379 35.3536L19.6915 34.5H18.4844H9.25V32H24V46.75H21.5V37.5156V36.3085L20.6464 37.1621ZM37.1621 35.3536L49.5507 47.7422L47.7422 49.5507L35.3536 37.1621L34.5 36.3085V37.5156V46.75H32V32H46.75V34.5H37.5156H36.3085L37.1621 35.3536Z" fill="#020A47" stroke="white"/>
</g>
</svg>
