<?xml version="1.0" encoding="utf-8"?>
<!-- Generator: Adobe Illustrator 26.5.3, SVG Export Plug-In . SVG Version: 6.00 Build 0)  -->
<svg version="1.1" id="Layer_1" xmlns="http://www.w3.org/2000/svg" xmlns:xlink="http://www.w3.org/1999/xlink" x="0px" y="0px"
	 viewBox="0 0 400 400" style="enable-background:new 0 0 400 400;" xml:space="preserve">
<style type="text/css">
	.st0{fill:#90B48A;}
</style>
<g>
	<path class="st0" d="M51.2,156.9c-4.7,0-8.5-3.8-8.5-8.4v-2.1c0-4.7,3.8-8.5,8.5-8.5s8.5,3.8,8.5,8.4v2.1
		C59.7,153,55.9,156.9,51.2,156.9 M290.9,156.9c-4.7,0-8.5-3.8-8.5-8.4v-2.1c0-4.7,3.8-8.4,8.5-8.4c4.7,0,8.5,3.8,8.5,8.4v2.1
		C299.4,153,295.6,156.9,290.9,156.9 M172,193c-4.7,0-8.5-3.8-8.5-8.4v-2.1c0-4.7,3.8-8.4,8.5-8.4c4.7,0,8.5,3.8,8.5,8.4v2.1
		C180.5,189.2,176.7,193,172,193 M172,229.8c-4.7,0-8.5-3.8-8.5-8.4v-2.1c0-4.7,3.8-8.4,8.5-8.4c4.7,0,8.5,3.8,8.5,8.4v2.1
		C180.5,226,176.7,229.8,172,229.8 M34.1,262.2h-1.7c-3.4,0-6-2.9-6-6.2c0-3.4,2.6-6.3,6-6.3h0.3c9,0,11.3-2.9,11.3-10.7v-64.1
		c0-3.9,3.1-6.9,7.2-6.9s7.2,3.1,7.2,6.9v63.2C58.5,253.6,52.6,262.2,34.1,262.2 M111.3,236.2c20.4,0,31.9-12.8,31.9-30.3v-30.2
		c0-3.7-2.6-6.9-7.2-6.9c-4.3,0-7.2,3.1-7.2,6.9v28.2c0,10.4-5.8,19.4-17.4,19.4S94,214.3,94,203.9v-28.2c0-3.9-2.9-6.9-7.2-6.9
		c-4.6,0-7.2,3.2-7.2,6.9v30.2C79.5,223.4,91,236.2,111.3,236.2 M232.6,167.9c-20.4,0-31.9,12.8-31.9,30.3v30.2
		c0,3.7,2.6,6.9,7.2,6.9c4.3,0,7.2-3.1,7.2-6.9v-28.2c0-10.4,5.8-19.4,17.4-19.4c11.6,0,17.4,9.1,17.4,19.4v28.2
		c0,3.9,2.9,6.9,7.2,6.9c4.6,0,7.2-3.2,7.2-6.9v-30.2C264.5,180.7,253,167.9,232.6,167.9 M290.9,235.2c-4.3,0-7.2-3.1-7.2-7V175
		c0-3.9,3.1-7,7.2-7s7.2,3.1,7.2,7v53.2C298.2,232,295.3,235.2,290.9,235.2 M367.7,234.1H323c-3.1,0-5.8-2.6-5.9-5.6
		c-0.1-2,0.6-3.9,1.7-5.2l32.9-39.9c1.3-1.6,0.5-2.9-1.9-2.9h-26.4c-3.1,0-5.8-2.4-5.8-5.8c0-3.4,2.7-5.7,5.8-5.7H367
		c3.8,0,6.1,2.4,6.1,6c0,3.1-1.4,4.7-2,5.5L339.7,219c-1.7,2.1-0.8,3.7,1.7,3.6h26.3c3.1,0,5.8,2.1,5.8,5.8
		C373.5,231.8,370.9,234.1,367.7,234.1"/>
</g>
</svg>
