<svg width="342" height="250" viewBox="0 0 342 250" fill="none" xmlns="http://www.w3.org/2000/svg">
<g filter="url(#filter0_b_3708_55748)">
<g clip-path="url(#clip0_3708_55748)">
<rect width="342" height="250" rx="9.97279" fill="#030938"/>
<rect x="12" y="12" width="86" height="26" rx="6" fill="#162174"/>
<path d="M30.9278 29.144C29.7118 29.144 28.6958 28.76 27.8798 27.992C27.0718 27.216 26.6678 26.22 26.6678 25.004C26.6678 23.788 27.0718 22.796 27.8798 22.028C28.6958 21.252 29.7118 20.864 30.9278 20.864C32.4238 20.864 33.5398 21.516 34.2758 22.82L32.8118 23.54C32.6358 23.204 32.3758 22.928 32.0318 22.712C31.6958 22.488 31.3278 22.376 30.9278 22.376C30.1998 22.376 29.5998 22.624 29.1278 23.12C28.6558 23.616 28.4198 24.244 28.4198 25.004C28.4198 25.764 28.6558 26.392 29.1278 26.888C29.5998 27.384 30.1998 27.632 30.9278 27.632C31.3278 27.632 31.6958 27.524 32.0318 27.308C32.3758 27.092 32.6358 26.812 32.8118 26.468L34.2758 27.176C33.5158 28.488 32.3998 29.144 30.9278 29.144ZM40.69 29H39.166V28.268C38.646 28.852 37.966 29.144 37.126 29.144C36.502 29.144 36.034 28.984 35.722 28.664C35.41 28.344 35.254 27.896 35.254 27.32V23.204H36.778V26.72C36.778 27.432 37.134 27.788 37.846 27.788C38.382 27.788 38.822 27.568 39.166 27.128V23.204H40.69V29ZM44.2913 29.144C43.7873 29.144 43.3033 29.064 42.8393 28.904C42.3833 28.744 42.0033 28.524 41.6993 28.244L42.3593 27.176C42.5833 27.384 42.8873 27.568 43.2713 27.728C43.6553 27.888 44.0193 27.968 44.3633 27.968C44.6833 27.968 44.9233 27.912 45.0833 27.8C45.2513 27.688 45.3353 27.536 45.3353 27.344C45.3353 27.2 45.2473 27.084 45.0713 26.996C44.9033 26.9 44.6913 26.832 44.4353 26.792C44.1873 26.752 43.9113 26.692 43.6073 26.612C43.3113 26.532 43.0353 26.436 42.7793 26.324C42.5313 26.212 42.3193 26.036 42.1433 25.796C41.9753 25.548 41.8913 25.244 41.8913 24.884C41.8913 24.372 42.1033 23.94 42.5273 23.588C42.9513 23.236 43.5313 23.06 44.2673 23.06C45.1633 23.06 45.9433 23.324 46.6073 23.852L45.9953 24.896C45.8113 24.704 45.5633 24.544 45.2513 24.416C44.9473 24.288 44.6233 24.224 44.2793 24.224C44.0073 24.224 43.7873 24.28 43.6193 24.392C43.4513 24.496 43.3673 24.632 43.3673 24.8C43.3673 24.928 43.4513 25.036 43.6193 25.124C43.7873 25.204 43.9993 25.264 44.2553 25.304C44.5113 25.344 44.7873 25.408 45.0833 25.496C45.3793 25.576 45.6553 25.676 45.9113 25.796C46.1673 25.908 46.3793 26.092 46.5473 26.348C46.7153 26.604 46.7993 26.916 46.7993 27.284C46.7993 27.828 46.5753 28.276 46.1273 28.628C45.6873 28.972 45.0753 29.144 44.2913 29.144ZM49.866 29.144C49.33 29.144 48.922 29.008 48.642 28.736C48.362 28.464 48.222 28.072 48.222 27.56V24.536H47.262V23.204H48.222V21.62H49.758V23.204H50.934V24.536H49.758V27.152C49.758 27.336 49.806 27.488 49.902 27.608C49.998 27.728 50.126 27.788 50.286 27.788C50.526 27.788 50.702 27.732 50.814 27.62L51.138 28.772C50.858 29.02 50.434 29.144 49.866 29.144ZM56.8967 28.268C56.3367 28.852 55.5927 29.144 54.6647 29.144C53.7367 29.144 52.9927 28.852 52.4327 28.268C51.8807 27.676 51.6047 26.952 51.6047 26.096C51.6047 25.24 51.8807 24.52 52.4327 23.936C52.9927 23.352 53.7367 23.06 54.6647 23.06C55.5927 23.06 56.3367 23.352 56.8967 23.936C57.4567 24.52 57.7367 25.24 57.7367 26.096C57.7367 26.952 57.4567 27.676 56.8967 28.268ZM53.5847 27.308C53.8487 27.628 54.2087 27.788 54.6647 27.788C55.1207 27.788 55.4807 27.628 55.7447 27.308C56.0167 26.98 56.1527 26.576 56.1527 26.096C56.1527 25.624 56.0167 25.228 55.7447 24.908C55.4807 24.58 55.1207 24.416 54.6647 24.416C54.2087 24.416 53.8487 24.58 53.5847 24.908C53.3207 25.228 53.1887 25.624 53.1887 26.096C53.1887 26.576 53.3207 26.98 53.5847 27.308ZM67.5913 29H66.0553V25.34C66.0553 24.724 65.7673 24.416 65.1913 24.416C64.9433 24.416 64.7113 24.484 64.4953 24.62C64.2873 24.756 64.1193 24.912 63.9913 25.088V29H62.4553V25.34C62.4553 24.724 62.1673 24.416 61.5913 24.416C61.3513 24.416 61.1233 24.484 60.9073 24.62C60.6913 24.756 60.5193 24.916 60.3913 25.1V29H58.8673V23.204H60.3913V23.96C60.5353 23.752 60.7873 23.552 61.1473 23.36C61.5073 23.16 61.8873 23.06 62.2873 23.06C63.1273 23.06 63.6633 23.412 63.8953 24.116C64.0793 23.828 64.3513 23.58 64.7113 23.372C65.0793 23.164 65.4713 23.06 65.8873 23.06C66.4313 23.06 66.8513 23.208 67.1473 23.504C67.4433 23.792 67.5913 24.228 67.5913 24.812V29ZM69.8421 22.58C69.5941 22.58 69.3781 22.492 69.1941 22.316C69.0181 22.132 68.9301 21.916 68.9301 21.668C68.9301 21.42 69.0181 21.208 69.1941 21.032C69.3781 20.856 69.5941 20.768 69.8421 20.768C70.0981 20.768 70.3141 20.856 70.4901 21.032C70.6661 21.208 70.7541 21.42 70.7541 21.668C70.7541 21.916 70.6661 22.132 70.4901 22.316C70.3141 22.492 70.0981 22.58 69.8421 22.58ZM70.6101 29H69.0861V23.204H70.6101V29ZM76.5972 29H71.8692V27.86L74.4852 24.536H71.8692V23.204H76.5492V24.308L73.8972 27.668H76.5972V29ZM80.5874 29.144C79.6914 29.144 78.9514 28.864 78.3674 28.304C77.7834 27.744 77.4914 27.008 77.4914 26.096C77.4914 25.24 77.7714 24.52 78.3314 23.936C78.8994 23.352 79.6194 23.06 80.4914 23.06C81.3554 23.06 82.0554 23.356 82.5914 23.948C83.1274 24.532 83.3954 25.3 83.3954 26.252V26.588H79.0874C79.1354 26.972 79.3074 27.292 79.6034 27.548C79.8994 27.804 80.2834 27.932 80.7554 27.932C81.0114 27.932 81.2874 27.88 81.5834 27.776C81.8874 27.672 82.1274 27.532 82.3034 27.356L82.9754 28.34C82.3914 28.876 81.5954 29.144 80.5874 29.144ZM81.9194 25.556C81.8954 25.228 81.7634 24.932 81.5234 24.668C81.2914 24.404 80.9474 24.272 80.4914 24.272C80.0594 24.272 79.7234 24.404 79.4834 24.668C79.2434 24.924 79.1034 25.22 79.0634 25.556H81.9194Z" fill="white"/>
<rect x="268" y="12" width="62" height="26" rx="6" fill="#5EE4E4"/>
<path d="M282.679 25.004C282.679 22.472 284.599 20.864 286.939 20.864C288.595 20.864 289.639 21.668 290.251 22.616L288.835 23.384C288.463 22.82 287.779 22.376 286.939 22.376C285.487 22.376 284.431 23.492 284.431 25.004C284.431 26.516 285.487 27.632 286.939 27.632C287.671 27.632 288.319 27.332 288.667 27.02V26.048H286.531V24.584H290.347V27.644C289.531 28.556 288.391 29.156 286.939 29.156C284.599 29.156 282.679 27.524 282.679 25.004ZM293.188 29H291.664V23.204H293.188V23.996C293.596 23.48 294.316 23.072 295.036 23.072V24.56C294.928 24.536 294.784 24.524 294.616 24.524C294.112 24.524 293.44 24.8 293.188 25.172V29ZM300.992 29H299.468V28.4C299.072 28.868 298.388 29.144 297.632 29.144C296.708 29.144 295.616 28.52 295.616 27.224C295.616 25.868 296.708 25.376 297.632 25.376C298.4 25.376 299.084 25.616 299.468 26.084V25.28C299.468 24.692 298.964 24.308 298.196 24.308C297.572 24.308 296.996 24.536 296.504 24.992L295.928 23.972C296.636 23.348 297.548 23.06 298.46 23.06C299.78 23.06 300.992 23.588 300.992 25.256V29ZM299.468 27.608V26.888C299.216 26.552 298.736 26.384 298.244 26.384C297.644 26.384 297.152 26.708 297.152 27.26C297.152 27.8 297.644 28.112 298.244 28.112C298.736 28.112 299.216 27.944 299.468 27.608ZM304.028 28.256V31.208H302.504V23.204H304.028V23.936C304.472 23.372 305.108 23.06 305.816 23.06C307.304 23.06 308.384 24.164 308.384 26.096C308.384 28.028 307.304 29.144 305.816 29.144C305.132 29.144 304.496 28.856 304.028 28.256ZM306.8 26.096C306.8 25.1 306.212 24.416 305.336 24.416C304.844 24.416 304.28 24.704 304.028 25.076V27.128C304.28 27.488 304.844 27.788 305.336 27.788C306.212 27.788 306.8 27.104 306.8 26.096ZM314.972 29H313.448V25.472C313.448 24.668 313.028 24.416 312.368 24.416C311.78 24.416 311.312 24.752 311.048 25.1V29H309.524V20.996H311.048V23.96C311.42 23.516 312.14 23.06 313.088 23.06C314.36 23.06 314.972 23.756 314.972 24.884V29Z" fill="#020A47"/>
<path opacity="0.6" d="M21.708 69H20.304V62.82L18.996 64.176L18.18 63.324L20.484 60.996H21.708V69ZM27.6946 68.784C27.2706 69.024 26.7906 69.144 26.2546 69.144C25.7186 69.144 25.2386 69.024 24.8146 68.784C24.3906 68.544 24.0546 68.224 23.8066 67.824C23.5586 67.424 23.3706 66.984 23.2426 66.504C23.1146 66.024 23.0506 65.524 23.0506 65.004C23.0506 64.484 23.1146 63.984 23.2426 63.504C23.3706 63.024 23.5586 62.588 23.8066 62.196C24.0546 61.796 24.3906 61.476 24.8146 61.236C25.2386 60.996 25.7186 60.876 26.2546 60.876C26.7906 60.876 27.2706 60.996 27.6946 61.236C28.1186 61.476 28.4546 61.796 28.7026 62.196C28.9506 62.588 29.1386 63.024 29.2666 63.504C29.3946 63.984 29.4586 64.484 29.4586 65.004C29.4586 65.524 29.3946 66.024 29.2666 66.504C29.1386 66.984 28.9506 67.424 28.7026 67.824C28.4546 68.224 28.1186 68.544 27.6946 68.784ZM24.9106 67.08C25.1986 67.624 25.6466 67.896 26.2546 67.896C26.8626 67.896 27.3106 67.624 27.5986 67.08C27.8866 66.536 28.0306 65.844 28.0306 65.004C28.0306 64.468 27.9746 63.992 27.8626 63.576C27.7586 63.16 27.5666 62.816 27.2866 62.544C27.0146 62.264 26.6706 62.124 26.2546 62.124C25.8386 62.124 25.4906 62.264 25.2106 62.544C24.9386 62.816 24.7466 63.16 24.6346 63.576C24.5306 63.992 24.4786 64.468 24.4786 65.004C24.4786 65.844 24.6226 66.536 24.9106 67.08ZM35.0891 68.784C34.6651 69.024 34.1851 69.144 33.6491 69.144C33.1131 69.144 32.6331 69.024 32.2091 68.784C31.7851 68.544 31.4491 68.224 31.2011 67.824C30.9531 67.424 30.7651 66.984 30.6371 66.504C30.5091 66.024 30.4451 65.524 30.4451 65.004C30.4451 64.484 30.5091 63.984 30.6371 63.504C30.7651 63.024 30.9531 62.588 31.2011 62.196C31.4491 61.796 31.7851 61.476 32.2091 61.236C32.6331 60.996 33.1131 60.876 33.6491 60.876C34.1851 60.876 34.6651 60.996 35.0891 61.236C35.5131 61.476 35.8491 61.796 36.0971 62.196C36.3451 62.588 36.5331 63.024 36.6611 63.504C36.7891 63.984 36.8531 64.484 36.8531 65.004C36.8531 65.524 36.7891 66.024 36.6611 66.504C36.5331 66.984 36.3451 67.424 36.0971 67.824C35.8491 68.224 35.5131 68.544 35.0891 68.784ZM32.3051 67.08C32.5931 67.624 33.0411 67.896 33.6491 67.896C34.2571 67.896 34.7051 67.624 34.9931 67.08C35.2811 66.536 35.4251 65.844 35.4251 65.004C35.4251 64.468 35.3691 63.992 35.2571 63.576C35.1531 63.16 34.9611 62.816 34.6811 62.544C34.4091 62.264 34.0651 62.124 33.6491 62.124C33.2331 62.124 32.8851 62.264 32.6051 62.544C32.3331 62.816 32.1411 63.16 32.0291 63.576C31.9251 63.992 31.8731 64.468 31.8731 65.004C31.8731 65.844 32.0171 66.536 32.3051 67.08Z" fill="white"/>
<path opacity="0.6" d="M20.988 107H19.452L22.476 100.232H18.324V98.996H24.096V99.968L20.988 107ZM28.0347 107.144C26.7467 107.144 25.7547 106.732 25.0587 105.908L25.8627 104.948C26.4227 105.58 27.1427 105.896 28.0227 105.896C28.5187 105.896 28.9147 105.764 29.2107 105.5C29.5147 105.228 29.6667 104.892 29.6667 104.492C29.6667 104.06 29.5187 103.716 29.2227 103.46C28.9347 103.196 28.5467 103.064 28.0587 103.064C27.3787 103.064 26.7947 103.296 26.3067 103.76L25.3107 103.472V98.996H30.5547V100.232H26.7147V102.548C27.1787 102.084 27.7827 101.852 28.5267 101.852C29.2307 101.852 29.8307 102.088 30.3267 102.56C30.8307 103.024 31.0827 103.648 31.0827 104.432C31.0827 105.256 30.7987 105.916 30.2307 106.412C29.6707 106.9 28.9387 107.144 28.0347 107.144Z" fill="white"/>
<path opacity="0.6" d="M21.648 145.144C20.36 145.144 19.368 144.732 18.672 143.908L19.476 142.948C20.036 143.58 20.756 143.896 21.636 143.896C22.132 143.896 22.528 143.764 22.824 143.5C23.128 143.228 23.28 142.892 23.28 142.492C23.28 142.06 23.132 141.716 22.836 141.46C22.548 141.196 22.16 141.064 21.672 141.064C20.992 141.064 20.408 141.296 19.92 141.76L18.924 141.472V136.996H24.168V138.232H20.328V140.548C20.792 140.084 21.396 139.852 22.14 139.852C22.844 139.852 23.444 140.088 23.94 140.56C24.444 141.024 24.696 141.648 24.696 142.432C24.696 143.256 24.412 143.916 23.844 144.412C23.284 144.9 22.552 145.144 21.648 145.144ZM30.3313 144.784C29.9073 145.024 29.4273 145.144 28.8913 145.144C28.3553 145.144 27.8753 145.024 27.4513 144.784C27.0273 144.544 26.6913 144.224 26.4433 143.824C26.1953 143.424 26.0073 142.984 25.8793 142.504C25.7513 142.024 25.6873 141.524 25.6873 141.004C25.6873 140.484 25.7513 139.984 25.8793 139.504C26.0073 139.024 26.1953 138.588 26.4433 138.196C26.6913 137.796 27.0273 137.476 27.4513 137.236C27.8753 136.996 28.3553 136.876 28.8913 136.876C29.4273 136.876 29.9073 136.996 30.3313 137.236C30.7553 137.476 31.0913 137.796 31.3393 138.196C31.5873 138.588 31.7753 139.024 31.9033 139.504C32.0313 139.984 32.0953 140.484 32.0953 141.004C32.0953 141.524 32.0313 142.024 31.9033 142.504C31.7753 142.984 31.5873 143.424 31.3393 143.824C31.0913 144.224 30.7553 144.544 30.3313 144.784ZM27.5473 143.08C27.8353 143.624 28.2833 143.896 28.8913 143.896C29.4993 143.896 29.9473 143.624 30.2353 143.08C30.5233 142.536 30.6673 141.844 30.6673 141.004C30.6673 140.468 30.6113 139.992 30.4993 139.576C30.3953 139.16 30.2033 138.816 29.9233 138.544C29.6513 138.264 29.3073 138.124 28.8913 138.124C28.4753 138.124 28.1273 138.264 27.8473 138.544C27.5753 138.816 27.3833 139.16 27.2713 139.576C27.1673 139.992 27.1153 140.468 27.1153 141.004C27.1153 141.844 27.2593 142.536 27.5473 143.08Z" fill="white"/>
<path opacity="0.6" d="M24.396 183H18.6V181.896C20.272 180.632 21.408 179.696 22.008 179.088C22.616 178.472 22.92 177.892 22.92 177.348C22.92 176.956 22.776 176.656 22.488 176.448C22.208 176.232 21.868 176.124 21.468 176.124C20.588 176.124 19.868 176.444 19.308 177.084L18.492 176.16C18.836 175.744 19.268 175.428 19.788 175.212C20.316 174.988 20.868 174.876 21.444 174.876C22.26 174.876 22.948 175.096 23.508 175.536C24.068 175.976 24.348 176.58 24.348 177.348C24.348 178.036 24.06 178.72 23.484 179.4C22.908 180.08 22.028 180.868 20.844 181.764H24.396V183ZM28.7847 183.144C27.4967 183.144 26.5047 182.732 25.8087 181.908L26.6127 180.948C27.1727 181.58 27.8927 181.896 28.7727 181.896C29.2687 181.896 29.6647 181.764 29.9607 181.5C30.2647 181.228 30.4167 180.892 30.4167 180.492C30.4167 180.06 30.2687 179.716 29.9727 179.46C29.6847 179.196 29.2967 179.064 28.8087 179.064C28.1287 179.064 27.5447 179.296 27.0567 179.76L26.0607 179.472V174.996H31.3047V176.232H27.4647V178.548C27.9287 178.084 28.5327 177.852 29.2767 177.852C29.9807 177.852 30.5807 178.088 31.0767 178.56C31.5807 179.024 31.8327 179.648 31.8327 180.432C31.8327 181.256 31.5487 181.916 30.9807 182.412C30.4207 182.9 29.6887 183.144 28.7847 183.144Z" fill="white"/>
<path opacity="0.6" d="M23.136 220.784C22.712 221.024 22.232 221.144 21.696 221.144C21.16 221.144 20.68 221.024 20.256 220.784C19.832 220.544 19.496 220.224 19.248 219.824C19 219.424 18.812 218.984 18.684 218.504C18.556 218.024 18.492 217.524 18.492 217.004C18.492 216.484 18.556 215.984 18.684 215.504C18.812 215.024 19 214.588 19.248 214.196C19.496 213.796 19.832 213.476 20.256 213.236C20.68 212.996 21.16 212.876 21.696 212.876C22.232 212.876 22.712 212.996 23.136 213.236C23.56 213.476 23.896 213.796 24.144 214.196C24.392 214.588 24.58 215.024 24.708 215.504C24.836 215.984 24.9 216.484 24.9 217.004C24.9 217.524 24.836 218.024 24.708 218.504C24.58 218.984 24.392 219.424 24.144 219.824C23.896 220.224 23.56 220.544 23.136 220.784ZM20.352 219.08C20.64 219.624 21.088 219.896 21.696 219.896C22.304 219.896 22.752 219.624 23.04 219.08C23.328 218.536 23.472 217.844 23.472 217.004C23.472 216.468 23.416 215.992 23.304 215.576C23.2 215.16 23.008 214.816 22.728 214.544C22.456 214.264 22.112 214.124 21.696 214.124C21.28 214.124 20.932 214.264 20.652 214.544C20.38 214.816 20.188 215.16 20.076 215.576C19.972 215.992 19.92 216.468 19.92 217.004C19.92 217.844 20.064 218.536 20.352 219.08Z" fill="white"/>
<path d="M52 65H330" stroke="white" stroke-opacity="0.17"/>
<path d="M52 103H330" stroke="white" stroke-opacity="0.17"/>
<path d="M53 119.778H63.7573H74.5146V107.333H96.0291V94.8889H117.544V82.4444H139.058V70H160.573H214.359V82.4444H235.874V94.8889H257.388V107.333H278.903V119.778H295.039V135.333H311.175V154H330" stroke="#9B2AFF" stroke-width="1.5"/>
<path d="M330 114.407H319.243H308.485V126.556H286.971V138.704H265.456V150.852H243.942V163H222.427H168.641V150.852H147.126V138.704H125.612V126.556H104.097V114.407H87.9612V99.2222H71.8252V81H53" stroke="#D6F622" stroke-width="1.5"/>
<path d="M222 179.259H215.437H208.874V188.444H195.748V197.63H182.621V206.815H169.495V216H156.369H123.553V206.815H110.427V197.63H97.301V188.444H84.1748V179.259H74.3301V167.778H64.4854V154H53" stroke="#5EE4E4" stroke-width="1.5"/>
<path d="M391 192.037H384.437H377.874V196.778H364.748V201.519H351.621V206.259H338.495V211H325.369H292.553V206.259H279.427V201.519H266.301V196.778H253.175V192.037H243.33V186.111H233.485V179H222" stroke="#5EE4E4" stroke-width="1.5"/>
<path d="M52 141H330" stroke="white" stroke-opacity="0.17"/>
<path d="M52 179H330" stroke="white" stroke-opacity="0.17"/>
<path d="M52 217H330" stroke="white" stroke-opacity="0.17"/>
<rect x="114" y="113" width="155" height="57" rx="5" fill="#01062E"/>
<rect x="114.5" y="113.5" width="154" height="56" rx="4.5" stroke="white" stroke-opacity="0.21"/>
<rect x="125" y="126" width="35" height="5" rx="2.5" fill="#9B2AFF"/>
<rect x="169" y="126" width="19" height="5" rx="2.5" fill="#9B2AFF"/>
<rect x="192" y="126" width="11" height="5" rx="2.5" fill="#9B2AFF"/>
<rect x="207" y="126" width="35" height="5" rx="2.5" fill="#9B2AFF"/>
<rect x="125" y="139" width="35" height="5" rx="2.5" fill="#D6F622"/>
<rect x="169" y="139" width="19" height="5" rx="2.5" fill="#D6F622"/>
<rect x="192" y="139" width="27" height="5" rx="2.5" fill="#D6F622"/>
<rect x="223" y="139" width="35" height="5" rx="2.5" fill="#D6F622"/>
<rect x="125" y="152" width="35" height="5" rx="2.5" fill="#5EE4E4"/>
<rect x="169" y="152" width="35" height="5" rx="2.5" fill="#5EE4E4"/>
<rect x="208" y="152" width="11" height="5" rx="2.5" fill="#5EE4E4"/>
<rect x="223" y="152" width="27" height="5" rx="2.5" fill="#5EE4E4"/>
</g>
<rect x="0.125" y="0.125" width="341.75" height="249.75" rx="9.84779" stroke="#F2F4F6" stroke-width="0.25"/>
</g>
<defs>
<filter id="filter0_b_3708_55748" x="-24.932" y="-24.932" width="391.864" height="299.864" filterUnits="userSpaceOnUse" color-interpolation-filters="sRGB">
<feFlood flood-opacity="0" result="BackgroundImageFix"/>
<feGaussianBlur in="BackgroundImageFix" stdDeviation="12.466"/>
<feComposite in2="SourceAlpha" operator="in" result="effect1_backgroundBlur_3708_55748"/>
<feBlend mode="normal" in="SourceGraphic" in2="effect1_backgroundBlur_3708_55748" result="shape"/>
</filter>
<clipPath id="clip0_3708_55748">
<rect width="342" height="250" rx="9.97279" fill="white"/>
</clipPath>
</defs>
</svg>
