<svg width="348" height="283" viewBox="0 0 348 283" fill="none" xmlns="http://www.w3.org/2000/svg">
<g filter="url(#filter0_d_3708_55696)">
<g clip-path="url(#clip0_3708_55696)">
<rect x="4" y="2" width="320" height="250" rx="10" fill="#040C3B"/>
<path d="M33.468 32H31.752V26.396L29.496 32H28.752L26.496 26.396V32H24.792V23.996H27.18L29.124 28.832L31.068 23.996H33.468V32ZM37.7456 32.144C36.8496 32.144 36.1096 31.864 35.5256 31.304C34.9416 30.744 34.6496 30.008 34.6496 29.096C34.6496 28.24 34.9296 27.52 35.4896 26.936C36.0576 26.352 36.7776 26.06 37.6496 26.06C38.5136 26.06 39.2136 26.356 39.7496 26.948C40.2856 27.532 40.5536 28.3 40.5536 29.252V29.588H36.2456C36.2936 29.972 36.4656 30.292 36.7616 30.548C37.0576 30.804 37.4416 30.932 37.9136 30.932C38.1696 30.932 38.4456 30.88 38.7416 30.776C39.0456 30.672 39.2856 30.532 39.4616 30.356L40.1336 31.34C39.5496 31.876 38.7536 32.144 37.7456 32.144ZM39.0776 28.556C39.0536 28.228 38.9216 27.932 38.6816 27.668C38.4496 27.404 38.1056 27.272 37.6496 27.272C37.2176 27.272 36.8816 27.404 36.6416 27.668C36.4016 27.924 36.2616 28.22 36.2216 28.556H39.0776ZM50.3784 32H48.8424V28.34C48.8424 27.724 48.5544 27.416 47.9784 27.416C47.7304 27.416 47.4984 27.484 47.2824 27.62C47.0744 27.756 46.9064 27.912 46.7784 28.088V32H45.2424V28.34C45.2424 27.724 44.9544 27.416 44.3784 27.416C44.1384 27.416 43.9104 27.484 43.6944 27.62C43.4784 27.756 43.3064 27.916 43.1784 28.1V32H41.6544V26.204H43.1784V26.96C43.3224 26.752 43.5744 26.552 43.9344 26.36C44.2944 26.16 44.6744 26.06 45.0744 26.06C45.9144 26.06 46.4504 26.412 46.6824 27.116C46.8664 26.828 47.1384 26.58 47.4984 26.372C47.8664 26.164 48.2584 26.06 48.6744 26.06C49.2184 26.06 49.6384 26.208 49.9344 26.504C50.2304 26.792 50.3784 27.228 50.3784 27.812V32ZM56.7932 31.268C56.2332 31.852 55.4892 32.144 54.5612 32.144C53.6332 32.144 52.8892 31.852 52.3292 31.268C51.7772 30.676 51.5012 29.952 51.5012 29.096C51.5012 28.24 51.7772 27.52 52.3292 26.936C52.8892 26.352 53.6332 26.06 54.5612 26.06C55.4892 26.06 56.2332 26.352 56.7932 26.936C57.3532 27.52 57.6332 28.24 57.6332 29.096C57.6332 29.952 57.3532 30.676 56.7932 31.268ZM53.4812 30.308C53.7452 30.628 54.1052 30.788 54.5612 30.788C55.0172 30.788 55.3772 30.628 55.6412 30.308C55.9132 29.98 56.0492 29.576 56.0492 29.096C56.0492 28.624 55.9132 28.228 55.6412 27.908C55.3772 27.58 55.0172 27.416 54.5612 27.416C54.1052 27.416 53.7452 27.58 53.4812 27.908C53.2172 28.228 53.0852 28.624 53.0852 29.096C53.0852 29.576 53.2172 29.98 53.4812 30.308ZM60.2878 32H58.7638V26.204H60.2878V26.996C60.5038 26.724 60.7798 26.5 61.1158 26.324C61.4518 26.148 61.7918 26.06 62.1358 26.06V27.548C62.0318 27.524 61.8918 27.512 61.7158 27.512C61.4598 27.512 61.1878 27.576 60.8998 27.704C60.6118 27.832 60.4078 27.988 60.2878 28.172V32ZM62.884 34.268L63.112 32.9C63.256 32.964 63.416 32.996 63.592 32.996C64 32.996 64.268 32.856 64.396 32.576L64.612 32.084L62.26 26.204H63.892L65.404 30.236L66.916 26.204H68.56L65.836 32.948C65.636 33.46 65.356 33.816 64.996 34.016C64.636 34.224 64.184 34.336 63.64 34.352C63.36 34.352 63.108 34.324 62.884 34.268ZM78.6467 31.244C78.0387 31.844 77.1427 32.144 75.9587 32.144C74.7747 32.144 73.8747 31.844 73.2587 31.244C72.6507 30.636 72.3467 29.824 72.3467 28.808V23.996H74.0747V28.748C74.0747 29.324 74.2387 29.784 74.5667 30.128C74.8947 30.464 75.3587 30.632 75.9587 30.632C76.5587 30.632 77.0187 30.464 77.3387 30.128C77.6667 29.784 77.8307 29.324 77.8307 28.748V23.996H79.5707V28.796C79.5707 29.828 79.2627 30.644 78.6467 31.244ZM83.1995 32.144C82.6955 32.144 82.2115 32.064 81.7475 31.904C81.2915 31.744 80.9115 31.524 80.6075 31.244L81.2675 30.176C81.4915 30.384 81.7955 30.568 82.1795 30.728C82.5635 30.888 82.9275 30.968 83.2715 30.968C83.5915 30.968 83.8315 30.912 83.9915 30.8C84.1595 30.688 84.2435 30.536 84.2435 30.344C84.2435 30.2 84.1555 30.084 83.9795 29.996C83.8115 29.9 83.5995 29.832 83.3435 29.792C83.0955 29.752 82.8195 29.692 82.5155 29.612C82.2195 29.532 81.9435 29.436 81.6875 29.324C81.4395 29.212 81.2275 29.036 81.0515 28.796C80.8835 28.548 80.7995 28.244 80.7995 27.884C80.7995 27.372 81.0115 26.94 81.4355 26.588C81.8595 26.236 82.4395 26.06 83.1755 26.06C84.0715 26.06 84.8515 26.324 85.5155 26.852L84.9035 27.896C84.7195 27.704 84.4715 27.544 84.1595 27.416C83.8555 27.288 83.5315 27.224 83.1875 27.224C82.9155 27.224 82.6955 27.28 82.5275 27.392C82.3595 27.496 82.2755 27.632 82.2755 27.8C82.2755 27.928 82.3595 28.036 82.5275 28.124C82.6955 28.204 82.9075 28.264 83.1635 28.304C83.4195 28.344 83.6955 28.408 83.9915 28.496C84.2875 28.576 84.5635 28.676 84.8195 28.796C85.0755 28.908 85.2875 29.092 85.4555 29.348C85.6235 29.604 85.7075 29.916 85.7075 30.284C85.7075 30.828 85.4835 31.276 85.0355 31.628C84.5955 31.972 83.9835 32.144 83.1995 32.144ZM91.8342 32H90.3102V31.4C89.8942 31.896 89.2822 32.144 88.4742 32.144C87.9542 32.144 87.4862 31.976 87.0702 31.64C86.6622 31.296 86.4582 30.824 86.4582 30.224C86.4582 29.6 86.6582 29.132 87.0582 28.82C87.4662 28.508 87.9382 28.352 88.4742 28.352C89.2982 28.352 89.9102 28.588 90.3102 29.06V28.28C90.3102 27.984 90.1942 27.748 89.9622 27.572C89.7302 27.396 89.4222 27.308 89.0382 27.308C88.4062 27.308 87.8422 27.536 87.3462 27.992L86.7702 26.972C87.4582 26.364 88.3022 26.06 89.3022 26.06C90.0462 26.06 90.6542 26.232 91.1262 26.576C91.5982 26.92 91.8342 27.48 91.8342 28.256V32ZM89.0862 31.112C89.6542 31.112 90.0622 30.944 90.3102 30.608V29.888C90.0622 29.552 89.6542 29.384 89.0862 29.384C88.7742 29.384 88.5142 29.464 88.3062 29.624C88.0982 29.776 87.9942 29.988 87.9942 30.26C87.9942 30.524 88.0982 30.732 88.3062 30.884C88.5142 31.036 88.7742 31.112 89.0862 31.112ZM95.7218 34.352C94.7218 34.352 93.8898 34.064 93.2258 33.488L93.9098 32.384C94.3418 32.864 94.9458 33.104 95.7218 33.104C96.1538 33.104 96.5258 32.988 96.8378 32.756C97.1578 32.532 97.3178 32.16 97.3178 31.64V31.052C96.8378 31.66 96.2418 31.964 95.5298 31.964C94.7778 31.964 94.1618 31.708 93.6818 31.196C93.2098 30.676 92.9738 29.948 92.9738 29.012C92.9738 28.084 93.2098 27.36 93.6818 26.84C94.1618 26.32 94.7778 26.06 95.5298 26.06C96.2498 26.06 96.8458 26.356 97.3178 26.948V26.204H98.8538V31.604C98.8538 32.132 98.7578 32.584 98.5658 32.96C98.3818 33.336 98.1298 33.62 97.8098 33.812C97.4898 34.004 97.1578 34.14 96.8138 34.22C96.4778 34.308 96.1138 34.352 95.7218 34.352ZM96.0098 30.608C96.2578 30.608 96.5058 30.544 96.7538 30.416C97.0018 30.288 97.1898 30.132 97.3178 29.948V28.076C97.1898 27.884 97.0018 27.728 96.7538 27.608C96.5138 27.48 96.2658 27.416 96.0098 27.416C95.5698 27.416 95.2138 27.56 94.9418 27.848C94.6778 28.136 94.5458 28.524 94.5458 29.012C94.5458 29.5 94.6778 29.888 94.9418 30.176C95.2138 30.464 95.5698 30.608 96.0098 30.608ZM103.089 32.144C102.193 32.144 101.453 31.864 100.869 31.304C100.285 30.744 99.9934 30.008 99.9934 29.096C99.9934 28.24 100.273 27.52 100.833 26.936C101.401 26.352 102.121 26.06 102.993 26.06C103.857 26.06 104.557 26.356 105.093 26.948C105.629 27.532 105.897 28.3 105.897 29.252V29.588H101.589C101.637 29.972 101.809 30.292 102.105 30.548C102.401 30.804 102.785 30.932 103.257 30.932C103.513 30.932 103.789 30.88 104.085 30.776C104.389 30.672 104.629 30.532 104.805 30.356L105.477 31.34C104.893 31.876 104.097 32.144 103.089 32.144ZM104.421 28.556C104.397 28.228 104.265 27.932 104.025 27.668C103.793 27.404 103.449 27.272 102.993 27.272C102.561 27.272 102.225 27.404 101.985 27.668C101.745 27.924 101.605 28.22 101.565 28.556H104.421Z" fill="white"/>
<path opacity="0.6" d="M27.708 201H26.304V194.82L24.996 196.176L24.18 195.324L26.484 192.996H27.708V201ZM33.6946 200.784C33.2706 201.024 32.7906 201.144 32.2546 201.144C31.7186 201.144 31.2386 201.024 30.8146 200.784C30.3906 200.544 30.0546 200.224 29.8066 199.824C29.5586 199.424 29.3706 198.984 29.2426 198.504C29.1146 198.024 29.0506 197.524 29.0506 197.004C29.0506 196.484 29.1146 195.984 29.2426 195.504C29.3706 195.024 29.5586 194.588 29.8066 194.196C30.0546 193.796 30.3906 193.476 30.8146 193.236C31.2386 192.996 31.7186 192.876 32.2546 192.876C32.7906 192.876 33.2706 192.996 33.6946 193.236C34.1186 193.476 34.4546 193.796 34.7026 194.196C34.9506 194.588 35.1386 195.024 35.2666 195.504C35.3946 195.984 35.4586 196.484 35.4586 197.004C35.4586 197.524 35.3946 198.024 35.2666 198.504C35.1386 198.984 34.9506 199.424 34.7026 199.824C34.4546 200.224 34.1186 200.544 33.6946 200.784ZM30.9106 199.08C31.1986 199.624 31.6466 199.896 32.2546 199.896C32.8626 199.896 33.3106 199.624 33.5986 199.08C33.8866 198.536 34.0306 197.844 34.0306 197.004C34.0306 196.468 33.9746 195.992 33.8626 195.576C33.7586 195.16 33.5666 194.816 33.2866 194.544C33.0146 194.264 32.6706 194.124 32.2546 194.124C31.8386 194.124 31.4906 194.264 31.2106 194.544C30.9386 194.816 30.7466 195.16 30.6346 195.576C30.5306 195.992 30.4786 196.468 30.4786 197.004C30.4786 197.844 30.6226 198.536 30.9106 199.08ZM37.7004 200.892C37.5324 201.052 37.3364 201.132 37.1124 201.132C36.8884 201.132 36.6924 201.052 36.5244 200.892C36.3564 200.724 36.2724 200.524 36.2724 200.292C36.2724 200.06 36.3564 199.864 36.5244 199.704C36.6924 199.536 36.8884 199.452 37.1124 199.452C37.3364 199.452 37.5324 199.536 37.7004 199.704C37.8684 199.864 37.9524 200.06 37.9524 200.292C37.9524 200.524 37.8684 200.724 37.7004 200.892ZM44.9858 201H39.1898V199.896C40.8618 198.632 41.9978 197.696 42.5978 197.088C43.2058 196.472 43.5098 195.892 43.5098 195.348C43.5098 194.956 43.3658 194.656 43.0778 194.448C42.7978 194.232 42.4578 194.124 42.0578 194.124C41.1778 194.124 40.4578 194.444 39.8978 195.084L39.0818 194.16C39.4258 193.744 39.8578 193.428 40.3778 193.212C40.9058 192.988 41.4578 192.876 42.0338 192.876C42.8498 192.876 43.5378 193.096 44.0978 193.536C44.6578 193.976 44.9378 194.58 44.9378 195.348C44.9378 196.036 44.6498 196.72 44.0738 197.4C43.4978 198.08 42.6178 198.868 41.4338 199.764H44.9858V201Z" fill="white"/>
<path opacity="0.6" d="M27.708 156H26.304V149.82L24.996 151.176L24.18 150.324L26.484 147.996H27.708V156ZM33.6946 155.784C33.2706 156.024 32.7906 156.144 32.2546 156.144C31.7186 156.144 31.2386 156.024 30.8146 155.784C30.3906 155.544 30.0546 155.224 29.8066 154.824C29.5586 154.424 29.3706 153.984 29.2426 153.504C29.1146 153.024 29.0506 152.524 29.0506 152.004C29.0506 151.484 29.1146 150.984 29.2426 150.504C29.3706 150.024 29.5586 149.588 29.8066 149.196C30.0546 148.796 30.3906 148.476 30.8146 148.236C31.2386 147.996 31.7186 147.876 32.2546 147.876C32.7906 147.876 33.2706 147.996 33.6946 148.236C34.1186 148.476 34.4546 148.796 34.7026 149.196C34.9506 149.588 35.1386 150.024 35.2666 150.504C35.3946 150.984 35.4586 151.484 35.4586 152.004C35.4586 152.524 35.3946 153.024 35.2666 153.504C35.1386 153.984 34.9506 154.424 34.7026 154.824C34.4546 155.224 34.1186 155.544 33.6946 155.784ZM30.9106 154.08C31.1986 154.624 31.6466 154.896 32.2546 154.896C32.8626 154.896 33.3106 154.624 33.5986 154.08C33.8866 153.536 34.0306 152.844 34.0306 152.004C34.0306 151.468 33.9746 150.992 33.8626 150.576C33.7586 150.16 33.5666 149.816 33.2866 149.544C33.0146 149.264 32.6706 149.124 32.2546 149.124C31.8386 149.124 31.4906 149.264 31.2106 149.544C30.9386 149.816 30.7466 150.16 30.6346 150.576C30.5306 150.992 30.4786 151.468 30.4786 152.004C30.4786 152.844 30.6226 153.536 30.9106 154.08ZM37.7004 155.892C37.5324 156.052 37.3364 156.132 37.1124 156.132C36.8884 156.132 36.6924 156.052 36.5244 155.892C36.3564 155.724 36.2724 155.524 36.2724 155.292C36.2724 155.06 36.3564 154.864 36.5244 154.704C36.6924 154.536 36.8884 154.452 37.1124 154.452C37.3364 154.452 37.5324 154.536 37.7004 154.704C37.8684 154.864 37.9524 155.06 37.9524 155.292C37.9524 155.524 37.8684 155.724 37.7004 155.892ZM44.1458 156H42.7418V154.188H38.9258V153.06L42.2138 147.996H44.1458V152.952H45.2138V154.188H44.1458V156ZM42.7418 152.952V149.256L40.3058 152.952H42.7418Z" fill="white"/>
<path opacity="0.6" d="M27.708 111H26.304V104.82L24.996 106.176L24.18 105.324L26.484 102.996H27.708V111ZM33.6946 110.784C33.2706 111.024 32.7906 111.144 32.2546 111.144C31.7186 111.144 31.2386 111.024 30.8146 110.784C30.3906 110.544 30.0546 110.224 29.8066 109.824C29.5586 109.424 29.3706 108.984 29.2426 108.504C29.1146 108.024 29.0506 107.524 29.0506 107.004C29.0506 106.484 29.1146 105.984 29.2426 105.504C29.3706 105.024 29.5586 104.588 29.8066 104.196C30.0546 103.796 30.3906 103.476 30.8146 103.236C31.2386 102.996 31.7186 102.876 32.2546 102.876C32.7906 102.876 33.2706 102.996 33.6946 103.236C34.1186 103.476 34.4546 103.796 34.7026 104.196C34.9506 104.588 35.1386 105.024 35.2666 105.504C35.3946 105.984 35.4586 106.484 35.4586 107.004C35.4586 107.524 35.3946 108.024 35.2666 108.504C35.1386 108.984 34.9506 109.424 34.7026 109.824C34.4546 110.224 34.1186 110.544 33.6946 110.784ZM30.9106 109.08C31.1986 109.624 31.6466 109.896 32.2546 109.896C32.8626 109.896 33.3106 109.624 33.5986 109.08C33.8866 108.536 34.0306 107.844 34.0306 107.004C34.0306 106.468 33.9746 105.992 33.8626 105.576C33.7586 105.16 33.5666 104.816 33.2866 104.544C33.0146 104.264 32.6706 104.124 32.2546 104.124C31.8386 104.124 31.4906 104.264 31.2106 104.544C30.9386 104.816 30.7466 105.16 30.6346 105.576C30.5306 105.992 30.4786 106.468 30.4786 107.004C30.4786 107.844 30.6226 108.536 30.9106 109.08ZM37.7004 110.892C37.5324 111.052 37.3364 111.132 37.1124 111.132C36.8884 111.132 36.6924 111.052 36.5244 110.892C36.3564 110.724 36.2724 110.524 36.2724 110.292C36.2724 110.06 36.3564 109.864 36.5244 109.704C36.6924 109.536 36.8884 109.452 37.1124 109.452C37.3364 109.452 37.5324 109.536 37.7004 109.704C37.8684 109.864 37.9524 110.06 37.9524 110.292C37.9524 110.524 37.8684 110.724 37.7004 110.892ZM42.0772 111.144C41.5092 111.144 41.0092 111.036 40.5772 110.82C40.1452 110.596 39.8012 110.292 39.5452 109.908C39.2892 109.524 39.0972 109.092 38.9692 108.612C38.8412 108.124 38.7772 107.592 38.7772 107.016C38.7772 105.808 39.0852 104.816 39.7012 104.04C40.3172 103.264 41.1852 102.876 42.3052 102.876C43.2332 102.876 44.0012 103.172 44.6092 103.764L43.9492 104.832C43.5012 104.36 42.9532 104.124 42.3052 104.124C41.6652 104.124 41.1532 104.38 40.7692 104.892C40.3852 105.404 40.1932 106.028 40.1932 106.764C40.1932 106.868 40.1972 106.944 40.2052 106.992C40.4052 106.696 40.7012 106.436 41.0932 106.212C41.4852 105.988 41.9052 105.876 42.3532 105.876C43.1132 105.876 43.7492 106.104 44.2612 106.56C44.7732 107.008 45.0292 107.64 45.0292 108.456C45.0292 109.216 44.7572 109.856 44.2132 110.376C43.6692 110.888 42.9572 111.144 42.0772 111.144ZM42.0052 109.896C42.5012 109.896 42.8932 109.756 43.1812 109.476C43.4692 109.188 43.6132 108.864 43.6132 108.504C43.6132 108.04 43.4572 107.688 43.1452 107.448C42.8332 107.2 42.4412 107.076 41.9692 107.076C41.6332 107.076 41.3092 107.164 40.9972 107.34C40.6852 107.508 40.4252 107.736 40.2172 108.024C40.2652 108.536 40.4332 108.976 40.7212 109.344C41.0092 109.712 41.4372 109.896 42.0052 109.896Z" fill="white"/>
<path opacity="0.6" d="M27.708 66H26.304V59.82L24.996 61.176L24.18 60.324L26.484 57.996H27.708V66ZM33.6946 65.784C33.2706 66.024 32.7906 66.144 32.2546 66.144C31.7186 66.144 31.2386 66.024 30.8146 65.784C30.3906 65.544 30.0546 65.224 29.8066 64.824C29.5586 64.424 29.3706 63.984 29.2426 63.504C29.1146 63.024 29.0506 62.524 29.0506 62.004C29.0506 61.484 29.1146 60.984 29.2426 60.504C29.3706 60.024 29.5586 59.588 29.8066 59.196C30.0546 58.796 30.3906 58.476 30.8146 58.236C31.2386 57.996 31.7186 57.876 32.2546 57.876C32.7906 57.876 33.2706 57.996 33.6946 58.236C34.1186 58.476 34.4546 58.796 34.7026 59.196C34.9506 59.588 35.1386 60.024 35.2666 60.504C35.3946 60.984 35.4586 61.484 35.4586 62.004C35.4586 62.524 35.3946 63.024 35.2666 63.504C35.1386 63.984 34.9506 64.424 34.7026 64.824C34.4546 65.224 34.1186 65.544 33.6946 65.784ZM30.9106 64.08C31.1986 64.624 31.6466 64.896 32.2546 64.896C32.8626 64.896 33.3106 64.624 33.5986 64.08C33.8866 63.536 34.0306 62.844 34.0306 62.004C34.0306 61.468 33.9746 60.992 33.8626 60.576C33.7586 60.16 33.5666 59.816 33.2866 59.544C33.0146 59.264 32.6706 59.124 32.2546 59.124C31.8386 59.124 31.4906 59.264 31.2106 59.544C30.9386 59.816 30.7466 60.16 30.6346 60.576C30.5306 60.992 30.4786 61.468 30.4786 62.004C30.4786 62.844 30.6226 63.536 30.9106 64.08ZM37.7004 65.892C37.5324 66.052 37.3364 66.132 37.1124 66.132C36.8884 66.132 36.6924 66.052 36.5244 65.892C36.3564 65.724 36.2724 65.524 36.2724 65.292C36.2724 65.06 36.3564 64.864 36.5244 64.704C36.6924 64.536 36.8884 64.452 37.1124 64.452C37.3364 64.452 37.5324 64.536 37.7004 64.704C37.8684 64.864 37.9524 65.06 37.9524 65.292C37.9524 65.524 37.8684 65.724 37.7004 65.892ZM44.3378 65.568C43.7538 65.952 43.0298 66.144 42.1658 66.144C41.3018 66.144 40.5738 65.952 39.9818 65.568C39.3898 65.176 39.0938 64.636 39.0938 63.948C39.0938 63.46 39.2618 63.036 39.5978 62.676C39.9418 62.316 40.3738 62.048 40.8938 61.872C40.3978 61.712 39.9938 61.476 39.6818 61.164C39.3778 60.852 39.2258 60.456 39.2258 59.976C39.2258 59.624 39.3098 59.308 39.4778 59.028C39.6538 58.748 39.8818 58.528 40.1618 58.368C40.4498 58.208 40.7618 58.088 41.0978 58.008C41.4418 57.92 41.7978 57.876 42.1658 57.876C42.5338 57.876 42.8858 57.92 43.2218 58.008C43.5578 58.088 43.8698 58.208 44.1578 58.368C44.4458 58.528 44.6738 58.748 44.8418 59.028C45.0178 59.308 45.1058 59.624 45.1058 59.976C45.1058 60.88 44.5458 61.512 43.4258 61.872C43.9458 62.048 44.3738 62.316 44.7098 62.676C45.0538 63.036 45.2258 63.46 45.2258 63.948C45.2258 64.636 44.9298 65.176 44.3378 65.568ZM42.1658 61.32C42.3818 61.28 42.5898 61.228 42.7898 61.164C42.9898 61.092 43.1858 60.972 43.3778 60.804C43.5778 60.628 43.6778 60.424 43.6778 60.192C43.6778 59.864 43.5338 59.604 43.2458 59.412C42.9658 59.22 42.6058 59.124 42.1658 59.124C41.7178 59.124 41.3498 59.22 41.0618 59.412C40.7818 59.604 40.6418 59.864 40.6418 60.192C40.6418 60.424 40.7418 60.628 40.9418 60.804C41.1418 60.972 41.3418 61.092 41.5418 61.164C41.7418 61.228 41.9498 61.28 42.1658 61.32ZM42.1658 64.896C42.6218 64.896 43.0098 64.792 43.3298 64.584C43.6498 64.376 43.8098 64.104 43.8098 63.768C43.8098 63.408 43.6218 63.12 43.2458 62.904C42.8778 62.68 42.5178 62.548 42.1658 62.508C41.9578 62.532 41.7378 62.588 41.5058 62.676C41.2738 62.756 41.0498 62.896 40.8338 63.096C40.6178 63.288 40.5098 63.512 40.5098 63.768C40.5098 64.104 40.6658 64.376 40.9778 64.584C41.2978 64.792 41.6938 64.896 42.1658 64.896Z" fill="white"/>
<path fill-rule="evenodd" clip-rule="evenodd" d="M61 212.5L61.3765 181L62.7369 190.832L64.3765 184L65.9563 190.832L67.1262 192.946V170.859L67.8765 168.866L68.3765 163.613L69.3765 156.31L70.9663 166.896L71.3765 170.859L71.9832 174.628L73.0301 182.6V172.772L74.2579 168.866L73.8765 165.5L75.6359 158.5L77.3935 162L77.1019 150.236L78.6237 151.514L78.8765 146V141.5L79.3765 137L81.1223 148.675L82.4853 146.363L83.3765 153L83.8765 156.31L84.9467 163.613V158.301L85.3765 153L86.3765 148.675L88.0581 156.31L89.5226 159.303V153.19L90.3765 141L91.7888 153.19V148.675L92.8765 141L93.8765 134.357L94.8765 124.783L95.7827 130.891V136.213L98.2462 124.783L99.6192 119.887L100.836 123.528L101.376 125.5L102.876 130.891L103.876 139.5L105.18 148.675L106.515 144.638L107.797 147.454L109.932 141.946L111.213 138.791L112.377 144.638L113.613 148.675V153.19L114.613 156.417L116.062 151.514L117.106 156.31V159.303L118.37 161.708L119.876 168.866L120.538 161.708V153.19L123.282 148.675L123.876 143.641L124.908 147.454L126.074 151.514L127.353 154.249L128.346 148.675L129.629 144.638L130.574 147.454V158.301L132.736 160.713V154.249L133.376 146.5L133.876 140L135.17 155.355L136.529 157.368L138.035 160.713L139.486 156.31L140.85 153.19L142.357 160.713V165.709L144.446 168.866L146.078 163.613L146.876 160L148.683 165.709L150.073 168.866L151.537 172.772L152.876 168.866L154.376 162L156.058 170.859L157.935 172.772L159.16 177.293L161.376 170.859L162.669 174.628L165.233 178.786L167.376 170.859L168.876 164.5L170.285 168.866L173.114 163.613L175.756 160.713V155.355L177.805 151.514V147.454L178.946 143.641V138.791L180.391 134.357L181.902 138.791L186.376 128.5L190.215 136.294L192.056 130.891L192.876 118.674L193.619 110.342L195.005 101.717L195.876 105.908L197.236 117.765L197.969 136.294L199.799 117.765L200.376 114L201.361 130.891L203.657 128.077L205.121 123.147V117.765L206.654 114.887L207.376 118L207.794 124.531L208.791 141.101L210.033 131.83L211.371 128.077L212.702 130.891V133.494L214.374 137.325L215.487 118.674L216.694 108.128L216.876 106L217.376 101.717L219.258 113.506V117.765L220.97 114.887L221.876 108.128L222.606 113.506H225.283V121.354L227.033 130.891L228.314 114.887L230.725 128.077V134.948L233.119 133.494L235.066 141.101V130.891L236.175 126.5L239.042 136.294L239.774 123.147L240.723 124.531L243.255 121.354L243.987 129.692L246.118 128.077L248.173 131.83L249.93 125.874L250.91 121.354L253.083 114.887L254.288 123.147L255.34 102.855L257.177 108.128L257.876 71.5L259.792 102.855L261.929 109.284L263.876 75.5L265.676 102.855V108.128L267.293 114.887L269.088 101.717L270.115 113.506L272.451 116.302L273.758 121.354V105.018L274.876 75.5L275.876 62L277.502 101.717L279.289 105.908L281.376 77L280.705 114.425V122.5L282.377 140.866L283.876 128.456L285.17 117.999L286.63 128.456L287.362 133.459L288.373 135.739L290.291 140.866L291.642 130.568L293.137 135.739L294.865 128.456L297.128 132.535L297.627 117.999L297.876 104.5L300.792 114.425L303 98L304 89.5L305.876 101L306.5 105.018L308 113.506L309.825 123.214L311.376 128.456L313.5 119.5L314.5 114.5L317.344 124.783L318.331 128.456L320.159 127.363L321.606 133.459L323.718 138.135L325.573 130.568V211.936" fill="url(#paint0_linear_3708_55696)"/>
<path d="M325.5 130.568L324.342 138.135L322.23 133.459L320.783 127.363L318.955 128.456L317.967 124.783L315.124 114.5L314.124 119.5L312 128.456L310.449 123.214L308.624 113.506L307.124 105.018L306.5 101L304.624 89.5L303.624 98L301.416 114.425L298.5 104.5L298.251 117.999L297.751 132.535L295.488 128.456L293.76 135.739L292.266 130.568L290.915 140.866L288.997 135.739L287.986 133.459L287.253 128.456L285.794 117.999L284.5 128.456L283.001 140.866L281.329 122.5V114.425L282 77L279.913 105.908L278.126 101.717L276.5 62L275.5 75.5L274.381 105.018V121.354L273.074 116.302L270.739 113.506L269.712 101.717L267.916 114.887L266.299 108.128V102.855L264.5 75.5L262.553 109.284L260.415 102.855L258.5 71.5L257.801 108.128L255.964 102.855L254.911 123.147L253.706 114.887L251.534 121.354L250.553 125.874L248.796 131.83L246.741 128.077L244.611 129.692L243.878 121.354L241.346 124.531L240.397 123.147L239.665 136.294L236.798 126.5L235.69 130.891V141.101L233.743 133.494L231.348 134.948V128.077L228.938 114.887L227.657 130.891L225.906 121.354V113.506H223.23L222.5 108.128L221.594 114.887L219.882 117.765V113.506L218 101.717L217.5 106L217.317 108.128L216.111 118.674L214.997 137.325L213.326 133.494V130.891L211.995 128.077L210.656 131.83L209.415 141.101L208.418 124.531L208 118L207.277 114.887L205.745 117.765V123.147L204.28 128.077L201.985 130.891L201 114L200.423 117.765L198.592 136.294L197.86 117.765L196.5 105.908L195.629 101.717L194.243 110.342L193.5 118.674L192.68 130.891L190.839 136.294L187 128.5L182.525 138.791L181.015 134.357L179.57 138.791V143.641L178.428 147.454V151.514L176.38 155.355V160.713L173.738 163.613L170.909 168.866L169.5 164.5L168 170.859L165.857 178.786L163.292 174.628L162 170.859L159.784 177.293L158.558 172.772L156.681 170.859L155 162L153.5 168.866L152.161 172.772L150.696 168.866L149.306 165.709L147.5 160L146.701 163.613L145.069 168.866L142.98 165.709V160.713L141.474 153.19L140.109 156.31L138.659 160.713L137.153 157.368L135.794 155.355L134.5 140L134 146.5L133.359 154.249V160.713L131.198 158.301V147.454L130.252 144.638L128.969 148.675L127.977 154.249L126.697 151.514L125.531 147.454L124.5 143.641L123.906 148.675L121.162 153.19V161.708L120.5 168.866L118.994 161.708L117.73 159.303V156.31L116.685 151.514L115.236 156.417L114.237 153.19V148.675L113.001 144.638L111.837 138.791L110.555 141.946L108.421 147.454L107.139 144.638L105.803 148.675L104.5 139.5L103.5 130.891L102 125.5L101.459 123.528L100.243 119.887L98.8698 124.783L96.4062 136.213V130.891L95.5 124.783L94.5 134.357L93.5 141L92.4123 148.675V153.19L91 141L90.1462 153.19V159.303L88.6816 156.31L87 148.675L86 153L85.5702 158.301V163.613L84.5 156.31L84 153L83.1088 146.363L81.7458 148.675L80 137L79.5 141.5V146L79.2472 151.514L77.7255 150.236L78.017 162L76.2594 158.5L74.5 165.5L74.8815 168.866L73.6536 172.772V182.6L72.6067 174.628L72 170.859L71.5898 166.896L70 156.31L69 163.613L68.5 168.866L67.7497 170.859V192.946L66.5798 190.832L65 184L63.3604 190.832L61.5 180.5L61 185" stroke="#D6F622" stroke-width="1.5" stroke-linecap="round" stroke-linejoin="round"/>
</g>
<rect x="4.125" y="2.125" width="319.75" height="249.75" rx="9.875" stroke="#F2F4F6" stroke-width="0.25"/>
</g>
<g filter="url(#filter1_d_3708_55696)">
<rect x="78" y="191" width="266" height="86.45" rx="8.3125" fill="white"/>
<rect x="90.4688" y="202.637" width="73.15" height="63.175" rx="4.15625" fill="#F2F4F6"/>
<path d="M120.133 231.671L122.303 229C123.582 230.308 125.307 231.003 127.253 231.003C129.451 231.003 130.702 229.751 130.702 228.222C130.702 226.525 129.479 225.385 127.365 225.385C125.835 225.385 124.583 225.858 123.471 226.914L120.717 226.163V215.566H133.456V218.96H124.583V223.605C125.557 222.742 127.059 222.075 128.755 222.075C131.898 222.075 134.708 224.3 134.708 228.055C134.708 231.977 131.759 234.452 127.281 234.452C124.055 234.452 121.719 233.395 120.133 231.671Z" fill="#020A47"/>
<path d="M99.9652 257.355H98.5388V251.949H96.5937V250.702H101.9V251.949H99.9652V257.355ZM104.039 257.475C102.453 257.475 101.495 256.318 101.495 254.942C101.495 253.575 102.453 252.418 104.039 252.418C105.635 252.418 106.592 253.575 106.592 254.942C106.592 256.318 105.635 257.475 104.039 257.475ZM104.039 256.348C104.827 256.348 105.276 255.7 105.276 254.942C105.276 254.193 104.827 253.545 104.039 253.545C103.251 253.545 102.812 254.193 102.812 254.942C102.812 255.7 103.251 256.348 104.039 256.348ZM109.148 257.475C108.26 257.475 107.782 257.016 107.782 256.158V253.645H106.984V252.538H107.782V251.221H109.058V252.538H110.036V253.645H109.058V255.819C109.058 256.119 109.218 256.348 109.497 256.348C109.687 256.348 109.866 256.278 109.936 256.208L110.206 257.166C110.016 257.336 109.677 257.475 109.148 257.475ZM115.062 257.355H113.795V256.857C113.466 257.246 112.898 257.475 112.269 257.475C111.501 257.475 110.593 256.956 110.593 255.879C110.593 254.752 111.501 254.343 112.269 254.343C112.908 254.343 113.476 254.543 113.795 254.932V254.263C113.795 253.774 113.376 253.455 112.738 253.455C112.219 253.455 111.741 253.645 111.332 254.024L110.853 253.176C111.441 252.657 112.199 252.418 112.958 252.418C114.055 252.418 115.062 252.857 115.062 254.243V257.355ZM113.795 256.198V255.6C113.586 255.321 113.187 255.181 112.778 255.181C112.279 255.181 111.87 255.45 111.87 255.909C111.87 256.358 112.279 256.617 112.778 256.617C113.187 256.617 113.586 256.478 113.795 256.198ZM117.586 257.355H116.319V250.702H117.586V257.355ZM128.636 257.355H127.209V252.567L125.334 257.355H124.716L122.84 252.567V257.355H121.424V250.702H123.409L125.025 254.852L126.641 250.702H128.636V257.355ZM129.618 254.942C129.618 253.545 130.645 252.418 132.112 252.418C133.548 252.418 134.526 253.495 134.526 255.071V255.35H130.945C131.025 255.959 131.513 256.468 132.331 256.468C132.78 256.468 133.309 256.288 133.618 255.989L134.177 256.807C133.688 257.256 132.94 257.475 132.192 257.475C130.725 257.475 129.618 256.488 129.618 254.942ZM132.112 253.425C131.324 253.425 130.985 254.014 130.925 254.493H133.299C133.269 254.034 132.95 253.425 132.112 253.425ZM142.693 257.355H141.416V254.313C141.416 253.864 141.216 253.545 140.698 253.545C140.249 253.545 139.88 253.844 139.7 254.104V257.355H138.423V254.313C138.423 253.864 138.224 253.545 137.705 253.545C137.266 253.545 136.897 253.844 136.708 254.114V257.355H135.441V252.538H136.708V253.166C136.907 252.877 137.546 252.418 138.284 252.418C138.992 252.418 139.441 252.747 139.62 253.296C139.9 252.857 140.538 252.418 141.276 252.418C142.164 252.418 142.693 252.887 142.693 253.874V257.355ZM146.17 257.475C144.584 257.475 143.626 256.318 143.626 254.942C143.626 253.575 144.584 252.418 146.17 252.418C147.766 252.418 148.723 253.575 148.723 254.942C148.723 256.318 147.766 257.475 146.17 257.475ZM146.17 256.348C146.958 256.348 147.406 255.7 147.406 254.942C147.406 254.193 146.958 253.545 146.17 253.545C145.382 253.545 144.943 254.193 144.943 254.942C144.943 255.7 145.382 256.348 146.17 256.348ZM150.93 257.355H149.663V252.538H150.93V253.196C151.269 252.767 151.867 252.428 152.466 252.428V253.665C152.376 253.645 152.256 253.635 152.117 253.635C151.698 253.635 151.139 253.864 150.93 254.173V257.355ZM153.088 259.241L153.277 258.104C153.387 258.153 153.557 258.183 153.676 258.183C154.006 258.183 154.225 258.094 154.345 257.834L154.524 257.425L152.569 252.538H153.926L155.183 255.889L156.439 252.538H157.806L155.542 258.143C155.183 259.051 154.544 259.291 153.716 259.311C153.567 259.311 153.247 259.281 153.088 259.241Z" fill="#020A47"/>
<rect x="174.425" y="202.637" width="73.15" height="63.175" rx="4.15625" fill="#F2F4F6"/>
<path d="M206.908 234.118H202.931V220.656L199.871 223.799L197.619 221.435L203.459 215.566H206.908V234.118ZM224.017 234.118H210.055V231.003C217.648 225.412 219.873 223.493 219.873 221.213C219.873 219.599 218.399 218.793 216.841 218.793C214.755 218.793 213.142 219.627 211.891 220.935L209.638 218.32C211.446 216.234 214.199 215.288 216.786 215.288C220.735 215.288 223.878 217.513 223.878 221.213C223.878 224.383 221.264 227.137 216.285 230.641H224.017V234.118Z" fill="#020A47"/>
<path d="M184.053 257.355H182.627V251.949H180.682V250.702H185.988V251.949H184.053V257.355ZM188.127 257.475C186.541 257.475 185.583 256.318 185.583 254.942C185.583 253.575 186.541 252.418 188.127 252.418C189.723 252.418 190.68 253.575 190.68 254.942C190.68 256.318 189.723 257.475 188.127 257.475ZM188.127 256.348C188.915 256.348 189.363 255.7 189.363 254.942C189.363 254.193 188.915 253.545 188.127 253.545C187.339 253.545 186.9 254.193 186.9 254.942C186.9 255.7 187.339 256.348 188.127 256.348ZM193.236 257.475C192.348 257.475 191.869 257.016 191.869 256.158V253.645H191.071V252.538H191.869V251.221H193.146V252.538H194.124V253.645H193.146V255.819C193.146 256.119 193.306 256.348 193.585 256.348C193.775 256.348 193.954 256.278 194.024 256.208L194.293 257.166C194.104 257.336 193.765 257.475 193.236 257.475ZM199.15 257.355H197.883V256.857C197.554 257.246 196.985 257.475 196.357 257.475C195.589 257.475 194.681 256.956 194.681 255.879C194.681 254.752 195.589 254.343 196.357 254.343C196.995 254.343 197.564 254.543 197.883 254.932V254.263C197.883 253.774 197.464 253.455 196.826 253.455C196.307 253.455 195.828 253.645 195.419 254.024L194.941 253.176C195.529 252.657 196.287 252.418 197.045 252.418C198.143 252.418 199.15 252.857 199.15 254.243V257.355ZM197.883 256.198V255.6C197.674 255.321 197.275 255.181 196.866 255.181C196.367 255.181 195.958 255.45 195.958 255.909C195.958 256.358 196.367 256.617 196.866 256.617C197.275 256.617 197.674 256.478 197.883 256.198ZM201.673 257.355H200.407V250.702H201.673V257.355ZM208.474 257.355H207.048V251.949H205.103V250.702H210.409V251.949H208.474V257.355ZM215.816 257.355H214.549V254.423C214.549 253.754 214.2 253.545 213.652 253.545C213.163 253.545 212.774 253.824 212.554 254.114V257.355H211.288V250.702H212.554V253.166C212.864 252.797 213.462 252.418 214.25 252.418C215.307 252.418 215.816 252.996 215.816 253.934V257.355ZM218.341 257.355H217.074V252.538H218.341V253.196C218.68 252.767 219.278 252.428 219.877 252.428V253.665C219.787 253.645 219.667 253.635 219.528 253.635C219.109 253.635 218.55 253.864 218.341 254.173V257.355ZM220.359 254.942C220.359 253.545 221.387 252.418 222.853 252.418C224.289 252.418 225.267 253.495 225.267 255.071V255.35H221.686C221.766 255.959 222.254 256.468 223.072 256.468C223.521 256.468 224.05 256.288 224.359 255.989L224.918 256.807C224.429 257.256 223.681 257.475 222.933 257.475C221.466 257.475 220.359 256.488 220.359 254.942ZM222.853 253.425C222.065 253.425 221.726 254.014 221.666 254.493H224.04C224.01 254.034 223.691 253.425 222.853 253.425ZM230.341 257.355H229.075V256.857C228.745 257.246 228.177 257.475 227.548 257.475C226.78 257.475 225.873 256.956 225.873 255.879C225.873 254.752 226.78 254.343 227.548 254.343C228.187 254.343 228.755 254.543 229.075 254.932V254.263C229.075 253.774 228.656 253.455 228.017 253.455C227.499 253.455 227.02 253.645 226.611 254.024L226.132 253.176C226.72 252.657 227.479 252.418 228.237 252.418C229.334 252.418 230.341 252.857 230.341 254.243V257.355ZM229.075 256.198V255.6C228.865 255.321 228.466 255.181 228.057 255.181C227.558 255.181 227.149 255.45 227.149 255.909C227.149 256.358 227.558 256.617 228.057 256.617C228.466 256.617 228.865 256.478 229.075 256.198ZM236.186 257.355H234.91V256.747C234.531 257.216 234.002 257.475 233.423 257.475C232.206 257.475 231.289 256.557 231.289 254.951C231.289 253.375 232.196 252.418 233.423 252.418C233.992 252.418 234.531 252.667 234.91 253.156V250.702H236.186V257.355ZM234.91 255.799V254.094C234.69 253.774 234.241 253.545 233.812 253.545C233.094 253.545 232.595 254.114 232.595 254.951C232.595 255.779 233.094 256.348 233.812 256.348C234.241 256.348 234.69 256.119 234.91 255.799ZM237.024 256.727L237.572 255.839C237.921 256.168 238.64 256.498 239.238 256.498C239.787 256.498 240.046 256.308 240.046 256.009C240.046 255.67 239.627 255.55 239.079 255.44C238.251 255.281 237.183 255.081 237.183 253.934C237.183 253.126 237.892 252.418 239.158 252.418C239.976 252.418 240.625 252.697 241.094 253.076L240.595 253.944C240.306 253.635 239.757 253.385 239.168 253.385C238.71 253.385 238.41 253.555 238.41 253.834C238.41 254.134 238.789 254.243 239.328 254.353C240.156 254.513 241.263 254.732 241.263 255.929C241.263 256.817 240.515 257.475 239.178 257.475C238.34 257.475 237.532 257.196 237.024 256.727Z" fill="#020A47"/>
<rect x="258.381" y="202.637" width="73.15" height="63.175" rx="4.15625" fill="#F2F4F6"/>
<path d="M287.628 224.884C287.628 219.266 290.799 215.288 296.278 215.288C298.531 215.288 300.423 216.067 301.758 217.207L299.978 220.184C298.976 219.238 297.919 218.709 296.278 218.709C293.469 218.709 291.634 221.129 291.634 224.077C291.634 224.217 291.634 224.356 291.661 224.467C292.524 223.215 294.387 222.103 296.418 222.103C299.755 222.103 302.731 224.133 302.731 228.083C302.731 231.698 299.866 234.452 295.639 234.452C289.993 234.452 287.628 230.113 287.628 224.884ZM298.726 228.249C298.726 226.247 297.085 225.385 295.277 225.385C293.887 225.385 292.551 226.08 291.661 227.165C291.828 228.945 292.83 231.003 295.444 231.003C297.586 231.003 298.726 229.557 298.726 228.249Z" fill="#020A47"/>
<path d="M284.673 257.355H283.406V254.443C283.406 253.774 283.057 253.545 282.519 253.545C282.02 253.545 281.631 253.824 281.421 254.114V257.355H280.154V252.538H281.421V253.166C281.731 252.797 282.319 252.418 283.107 252.418C284.164 252.418 284.673 253.016 284.673 253.954V257.355ZM289.133 257.475C287.188 257.475 285.642 256.079 285.642 254.034C285.642 251.989 287.188 250.592 289.133 250.592C290.649 250.592 291.497 251.39 291.966 252.218L290.749 252.817C290.47 252.278 289.871 251.849 289.133 251.849C287.976 251.849 287.098 252.777 287.098 254.034C287.098 255.291 287.976 256.218 289.133 256.218C289.871 256.218 290.47 255.799 290.749 255.251L291.966 255.839C291.487 256.667 290.649 257.475 289.133 257.475ZM294.225 257.355H292.809V250.702H295.921C297.368 250.702 298.156 251.68 298.156 252.847C298.156 254.004 297.358 254.971 295.921 254.971H294.225V257.355ZM296.709 252.837C296.709 252.288 296.29 251.919 295.732 251.919H294.225V253.754H295.732C296.29 253.754 296.709 253.395 296.709 252.837ZM299.034 254.702V250.702H300.47V254.652C300.47 255.58 300.979 256.218 302.016 256.218C303.034 256.218 303.542 255.58 303.542 254.652V250.702H304.979V254.692C304.979 256.348 304.031 257.475 302.016 257.475C299.981 257.475 299.034 256.338 299.034 254.702ZM305.842 256.727L306.391 255.839C306.74 256.168 307.458 256.498 308.056 256.498C308.605 256.498 308.864 256.308 308.864 256.009C308.864 255.67 308.445 255.55 307.897 255.44C307.069 255.281 306.002 255.081 306.002 253.934C306.002 253.126 306.71 252.418 307.977 252.418C308.795 252.418 309.443 252.697 309.912 253.076L309.413 253.944C309.124 253.635 308.575 253.385 307.987 253.385C307.528 253.385 307.228 253.555 307.228 253.834C307.228 254.134 307.608 254.243 308.146 254.353C308.974 254.513 310.081 254.732 310.081 255.929C310.081 256.817 309.333 257.475 307.997 257.475C307.159 257.475 306.351 257.196 305.842 256.727Z" fill="#020A47"/>
</g>
<defs>
<filter id="filter0_d_3708_55696" x="0.201673" y="0.100836" width="327.597" height="257.597" filterUnits="userSpaceOnUse" color-interpolation-filters="sRGB">
<feFlood flood-opacity="0" result="BackgroundImageFix"/>
<feColorMatrix in="SourceAlpha" type="matrix" values="0 0 0 0 0 0 0 0 0 0 0 0 0 0 0 0 0 0 127 0" result="hardAlpha"/>
<feMorphology radius="1.58264" operator="erode" in="SourceAlpha" result="effect1_dropShadow_3708_55696"/>
<feOffset dy="1.89916"/>
<feGaussianBlur stdDeviation="2.69048"/>
<feComposite in2="hardAlpha" operator="out"/>
<feColorMatrix type="matrix" values="0 0 0 0 0.00784314 0 0 0 0 0.0392157 0 0 0 0 0.278431 0 0 0 0.11 0"/>
<feBlend mode="normal" in2="BackgroundImageFix" result="effect1_dropShadow_3708_55696"/>
<feBlend mode="normal" in="SourceGraphic" in2="effect1_dropShadow_3708_55696" result="shape"/>
</filter>
<filter id="filter1_d_3708_55696" x="74.8426" y="189.421" width="272.315" height="92.7649" filterUnits="userSpaceOnUse" color-interpolation-filters="sRGB">
<feFlood flood-opacity="0" result="BackgroundImageFix"/>
<feColorMatrix in="SourceAlpha" type="matrix" values="0 0 0 0 0 0 0 0 0 0 0 0 0 0 0 0 0 0 127 0" result="hardAlpha"/>
<feMorphology radius="1.31557" operator="erode" in="SourceAlpha" result="effect1_dropShadow_3708_55696"/>
<feOffset dy="1.57868"/>
<feGaussianBlur stdDeviation="2.23646"/>
<feComposite in2="hardAlpha" operator="out"/>
<feColorMatrix type="matrix" values="0 0 0 0 0.00784314 0 0 0 0 0.0392157 0 0 0 0 0.278431 0 0 0 0.11 0"/>
<feBlend mode="normal" in2="BackgroundImageFix" result="effect1_dropShadow_3708_55696"/>
<feBlend mode="normal" in="SourceGraphic" in2="effect1_dropShadow_3708_55696" result="shape"/>
</filter>
<linearGradient id="paint0_linear_3708_55696" x1="193.287" y1="62" x2="193.287" y2="212.5" gradientUnits="userSpaceOnUse">
<stop stop-color="#D6F622" stop-opacity="0.2"/>
<stop offset="1" stop-color="#040C3B"/>
</linearGradient>
<clipPath id="clip0_3708_55696">
<rect x="4" y="2" width="320" height="250" rx="10" fill="white"/>
</clipPath>
</defs>
</svg>
