<svg width="56" height="56" viewBox="0 0 56 56" fill="none" xmlns="http://www.w3.org/2000/svg">
<g id="icons8-workflow 1">
<path id="Vector" d="M30.8438 14.5H31.0509L31.1973 14.3536L40.25 5.30086L50.8085 15.8594L41.6464 25.0214L41.5 25.1679V25.375V31.6641V32.0715L41.899 32.1538C45.6506 32.9273 48.5 36.2817 48.5 40.25C48.5 44.7864 44.7864 48.5 40.25 48.5C35.7136 48.5 32 44.7864 32 40.25C32 36.2817 34.8494 32.9273 38.601 32.1538L39 32.0715V31.6641V25.375V25.1679L38.8536 25.0214L30.9786 17.1464L30.8321 17H30.625H24.3359H23.9286L23.8463 17.3989C23.1825 20.6146 20.6146 23.1825 17.3989 23.8463L17 23.9286V24.3359V31.5V32H17.5H24V48.5H7.5V32H14H14.5V31.5V24.3359V23.9285L14.101 23.8462C10.3494 23.0727 7.5 19.7183 7.5 15.75C7.5 11.2136 11.2136 7.5 15.75 7.5C19.7183 7.5 23.0727 10.3494 23.8462 14.101L23.9285 14.5H24.3359H30.8438ZM40.6036 9.21676L40.25 8.86321L39.8964 9.21676L33.6074 15.5058L33.2538 15.8594L33.6074 16.2129L39.8964 22.502L40.25 22.8555L40.6036 22.502L46.8926 16.2129L47.2462 15.8594L46.8926 15.5058L40.6036 9.21676ZM10.5 34.5H10V35V45.5V46H10.5H21H21.5V45.5V35V34.5H21H10.5ZM21.5 15.75C21.5 12.5549 18.9451 10 15.75 10C12.5549 10 10 12.5549 10 15.75C10 18.9451 12.5549 21.5 15.75 21.5C18.9451 21.5 21.5 18.9451 21.5 15.75ZM46 40.25C46 37.0549 43.4451 34.5 40.25 34.5C37.0549 34.5 34.5 37.0549 34.5 40.25C34.5 43.4451 37.0549 46 40.25 46C43.4451 46 46 43.4451 46 40.25Z" fill="#020A47" stroke="white"/>
</g>
</svg>
