<svg width="56" height="56" viewBox="0 0 56 56" fill="none" xmlns="http://www.w3.org/2000/svg">
<g id="icons8-journey 1">
<path id="Vector" d="M38.7837 12.75H39.1458L39.2587 12.406C39.4541 11.8108 39.7572 11.2503 40.1896 10.7638C40.9942 9.85862 42.2817 9.25 43.75 9.25C45.2183 9.25 46.5058 9.85862 47.3104 10.7638C48.1232 11.6782 48.5 12.8428 48.5 14C48.5 15.1572 48.1232 16.3218 47.3104 17.2362C46.5058 18.1414 45.2183 18.75 43.75 18.75C42.2817 18.75 40.9942 18.1414 40.1896 17.2362L39.8159 17.5684L40.1896 17.2362C39.7572 16.7497 39.4541 16.1892 39.2587 15.594L39.1458 15.25H38.7837H15.75C15.1321 15.25 14.5872 15.4927 14.1864 15.8786L13.6548 16.3903L14.3272 16.6944C14.9147 16.96 15.4223 17.3272 15.8104 17.7638C16.6232 18.6782 17 19.8428 17 21C17 22.1572 16.6232 23.3218 15.8104 24.2362C15.4223 24.6728 14.9147 25.04 14.3272 25.3056L13.6548 25.6097L14.1864 26.1214C14.5872 26.5073 15.1321 26.75 15.75 26.75H40.25C42.364 26.75 44.1637 28.18 44.7661 30.1236L44.8469 30.3846L45.1103 30.4575C46.008 30.706 46.7757 31.1623 47.3104 31.7638C48.1232 32.6782 48.5 33.8428 48.5 35C48.5 36.1572 48.1232 37.3218 47.3104 38.2362C46.7757 38.8377 46.008 39.294 45.1103 39.5425L44.8469 39.6154L44.7661 39.8764C44.1637 41.82 42.364 43.25 40.25 43.25H17.2163H16.8542L16.7413 43.594C16.5459 44.1892 16.2428 44.7497 15.8104 45.2362C15.0058 46.1414 13.7183 46.75 12.25 46.75C10.7817 46.75 9.49425 46.1414 8.68962 45.2362C7.8768 44.3218 7.5 43.1572 7.5 42C7.5 40.8428 7.8768 39.6782 8.68962 38.7638C9.49425 37.8586 10.7817 37.25 12.25 37.25C13.7183 37.25 15.0058 37.8586 15.8104 38.7638C16.2428 39.2503 16.5459 39.8108 16.7413 40.406L16.8542 40.75H17.2163H40.25C40.8679 40.75 41.4128 40.5073 41.8136 40.1214L42.3452 39.6097L41.6728 39.3056C41.0853 39.04 40.5777 38.6728 40.1896 38.2362C39.3768 37.3218 39 36.1572 39 35C39 33.8428 39.3768 32.6782 40.1896 31.7638C40.5777 31.3272 41.0853 30.96 41.6728 30.6944L42.3452 30.3903L41.8136 29.8786C41.4128 29.4927 40.8679 29.25 40.25 29.25H15.75C13.636 29.25 11.8363 27.82 11.2339 25.8764L11.1531 25.6154L10.8897 25.5425C9.99196 25.294 9.22435 24.8377 8.68962 24.2362C7.8768 23.3218 7.5 22.1572 7.5 21C7.5 19.8428 7.8768 18.6782 8.68962 17.7638C9.22435 17.1623 9.99196 16.706 10.8897 16.4575L11.1531 16.3846L11.2339 16.1236C11.8363 14.18 13.636 12.75 15.75 12.75H38.7837ZM10.5604 19.4237L10.9341 19.7559L10.5604 19.4237C10.2061 19.8222 10 20.4079 10 21C10 21.5921 10.2061 22.1778 10.5604 22.5763L10.9341 22.2441L10.5604 22.5763C10.7234 22.7597 10.9263 22.9391 11.217 23.0661C11.5025 23.1908 11.8385 23.25 12.25 23.25C12.6615 23.25 12.9975 23.1908 13.283 23.0661C13.5737 22.9391 13.7766 22.7597 13.9396 22.5763L13.5659 22.2441L13.9396 22.5763C14.2939 22.1778 14.5 21.5921 14.5 21C14.5 20.4079 14.2939 19.8222 13.9396 19.4237L13.5659 19.7559L13.9396 19.4237C13.7766 19.2403 13.5737 19.0609 13.283 18.9339C12.9975 18.8092 12.6615 18.75 12.25 18.75C11.8385 18.75 11.5025 18.8092 11.217 18.9339C10.9263 19.0609 10.7234 19.2403 10.5604 19.4237ZM45.4396 36.5763L45.0659 36.2441L45.4396 36.5763C45.7939 36.1778 46 35.5921 46 35C46 34.4079 45.7939 33.8222 45.4396 33.4237C45.2766 33.2403 45.0737 33.0609 44.783 32.9339C44.4975 32.8092 44.1615 32.75 43.75 32.75C43.3385 32.75 43.0025 32.8092 42.717 32.9339C42.4263 33.0609 42.2234 33.2403 42.0604 33.4237C41.7061 33.8222 41.5 34.4079 41.5 35C41.5 35.5921 41.7061 36.1778 42.0604 36.5763C42.2234 36.7597 42.4263 36.9391 42.717 37.0661C43.0025 37.1908 43.3385 37.25 43.75 37.25C44.1615 37.25 44.4975 37.1908 44.783 37.0661C45.0737 36.9391 45.2766 36.7597 45.4396 36.5763ZM10.5604 40.4237L10.9282 40.7506L10.5604 40.4237C10.2061 40.8222 10 41.4079 10 42C10 42.5921 10.2061 43.1778 10.5604 43.5763C10.7234 43.7597 10.9263 43.9391 11.217 44.0661C11.5025 44.1908 11.8385 44.25 12.25 44.25C12.6615 44.25 12.9975 44.1908 13.283 44.0661C13.5737 43.9391 13.7766 43.7597 13.9396 43.5763C14.2939 43.1778 14.5 42.5921 14.5 42C14.5 41.4079 14.2939 40.8222 13.9396 40.4237L13.662 40.6704L13.9396 40.4237C13.7766 40.2403 13.5737 40.0609 13.283 39.9339C12.9975 39.8092 12.6615 39.75 12.25 39.75C11.8385 39.75 11.5025 39.8092 11.217 39.9339C10.9263 40.0609 10.7234 40.2403 10.5604 40.4237ZM45.4396 12.4237C45.2766 12.2403 45.0737 12.0609 44.783 11.9339C44.4975 11.8092 44.1615 11.75 43.75 11.75C43.3385 11.75 43.0025 11.8092 42.717 11.9339C42.4263 12.0609 42.2234 12.2403 42.0604 12.4237C41.7061 12.8222 41.5 13.4079 41.5 14C41.5 14.5921 41.7061 15.1778 42.0604 15.5763C42.2234 15.7597 42.4263 15.9391 42.717 16.0661C43.0025 16.1908 43.3385 16.25 43.75 16.25C44.1615 16.25 44.4975 16.1908 44.783 16.0661C45.0737 15.9391 45.2766 15.7597 45.4396 15.5763C45.7939 15.1778 46 14.5921 46 14C46 13.4079 45.7939 12.8222 45.4396 12.4237Z" fill="#020A47" stroke="white"/>
</g>
</svg>
