<svg width="56" height="56" viewBox="0 0 56 56" fill="none" xmlns="http://www.w3.org/2000/svg">
<path d="M15.75 15.25H15.25V15.75V40.25V40.75H15.75H40.25H40.75V40.25V15.75V15.25H40.25H15.75ZM18.75 10H16.25V5.75H18.75V10ZM25.75 10H23.25V5.75H25.75V10ZM32.75 10H30.25V5.75H32.75V10ZM39.75 10H37.25V5.75H39.75V10ZM43.25 43.25H12.75V12.75H43.25V43.25ZM10 18.75H5.75V16.25H10V18.75ZM50.25 18.75H46V16.25H50.25V18.75ZM10 25.75H5.75V23.25H10V25.75ZM50.25 25.75H46V23.25H50.25V25.75ZM10 32.75H5.75V30.25H10V32.75ZM50.25 32.75H46V30.25H50.25V32.75ZM10 39.75H5.75V37.25H10V39.75ZM50.25 39.75H46V37.25H50.25V39.75ZM18.75 50.25H16.25V46H18.75V50.25ZM25.75 50.25H23.25V46H25.75V50.25ZM32.75 50.25H30.25V46H32.75V50.25ZM39.75 50.25H37.25V46H39.75V50.25Z" fill="#020A47" stroke="white"/>
</svg>
